<?xml version="1.0" standalone="no"?>
<!DOCTYPE svg PUBLIC "-//W3C//DTD SVG 20010904//EN"
 "http://www.w3.org/TR/2001/REC-SVG-20010904/DTD/svg10.dtd">
<svg version="1.0" xmlns="http://www.w3.org/2000/svg"
 width="408.000000pt" height="408.000000pt" viewBox="0 0 408.000000 408.000000"
 preserveAspectRatio="xMidYMid meet">
<metadata>
Created by potrace 1.11, written by Peter Selinger 2001-2013
</metadata>
<g transform="translate(0.000000,408.000000) scale(0.100000,-0.100000)"
fill="#000000" stroke="none">
<path d="M0 2040 l0 -2040 2040 0 2040 0 0 2040 0 2040 -2040 0 -2040 0 0
-2040z m1160 565 c18 -22 3 -50 -38 -71 -20 -10 -40 -23 -44 -29 -4 -5 -24
-62 -44 -125 -20 -63 -44 -131 -54 -152 l-17 -36 66 -65 c100 -98 152 -118
205 -76 40 32 58 9 21 -25 -22 -20 -38 -26 -74 -26 -55 0 -98 26 -183 108
l-56 55 -22 -21 c-37 -34 -110 -34 -132 1 -14 22 -8 63 12 85 26 27 65 28 107
3 l31 -20 20 47 c25 61 84 243 80 247 -7 8 -152 -26 -174 -40 -51 -33 -57 -91
-11 -113 28 -14 34 -26 17 -37 -11 -7 -41 7 -64 31 -27 26 -20 88 13 121 31
32 70 46 174 63 37 7 67 16 67 20 0 5 12 22 26 39 28 34 55 39 74 16z m724 6
c3 -5 -1 -28 -9 -51 -20 -56 -20 -56 15 -17 57 65 120 73 155 21 l21 -31 34
29 c43 35 109 39 140 8 34 -34 25 -88 -46 -297 -36 -106 -64 -202 -62 -215 2
-13 15 -28 31 -36 15 -7 25 -17 22 -23 -19 -29 -85 17 -85 60 0 30 30 128 89
289 57 157 55 216 -8 214 -36 -1 -82 -30 -109 -70 -10 -15 -42 -101 -71 -192
-54 -169 -62 -187 -79 -176 -6 4 13 77 49 183 61 184 66 211 49 244 -16 29
-45 23 -90 -17 -69 -62 -105 -123 -144 -239 -47 -143 -66 -175 -106 -175 -23
0 -31 5 -35 23 -9 33 4 60 80 171 37 54 71 110 75 124 5 15 15 48 23 74 l15
48 -26 -19 c-92 -64 -180 -79 -227 -38 -27 23 -39 77 -18 84 6 2 16 -12 23
-31 21 -66 88 -61 201 14 79 52 85 55 93 41z m733 -127 c3 -8 1 -20 -6 -27
-14 -14 -47 15 -37 32 10 16 36 13 43 -5z m189 -38 c3 -14 -1 -37 -11 -56 -16
-32 -16 -35 5 -71 25 -46 30 -107 10 -144 -31 -58 -117 -73 -168 -30 l-30 25
-28 -25 c-30 -28 -75 -33 -94 -10 -11 13 -15 13 -33 0 -30 -21 -63 -19 -81 6
l-15 22 -27 -22 c-60 -47 -112 -9 -100 75 8 64 42 136 79 171 42 39 59 44 92
27 25 -13 29 -12 40 2 29 40 24 -12 -9 -107 -38 -107 -45 -159 -22 -159 24 0
63 56 91 132 48 127 54 138 70 138 9 0 15 -4 13 -8 -1 -5 -21 -61 -43 -125
-32 -94 -37 -119 -27 -129 19 -19 43 1 78 67 32 59 62 84 102 85 27 0 62 -33
62 -60 0 -27 -23 -25 -35 2 -13 30 -39 34 -64 9 -27 -27 -27 -65 1 -91 47 -43
128 -8 128 55 0 50 -29 107 -51 100 -23 -8 -33 9 -15 24 10 8 13 23 9 47 -10
59 58 106 73 50z m-1500 -136 c-38 -106 -45 -160 -23 -160 19 0 51 37 77 89
16 33 24 41 33 32 16 -16 -40 -121 -74 -140 -30 -17 -79 -8 -79 14 0 21 -14
19 -35 -5 -26 -29 -71 -26 -91 5 -31 47 9 189 70 250 28 27 83 34 105 13 10
-11 14 -9 23 5 7 13 13 16 20 9 7 -7 -2 -44 -26 -112z m1995 93 c17 -20 13
-68 -11 -137 -47 -138 4 -159 70 -27 16 32 25 40 33 32 15 -15 -34 -114 -67
-136 -37 -25 -77 -16 -89 19 -7 22 -4 45 17 106 14 43 26 90 26 104 0 24 -4
27 -27 24 -39 -4 -83 -68 -122 -176 -22 -60 -39 -92 -48 -92 -10 0 -14 7 -10
19 4 15 -2 20 -36 24 -33 5 -46 1 -70 -19 -33 -28 -78 -31 -98 -7 -34 41 1
181 60 244 30 31 45 39 73 39 20 0 41 -7 48 -15 19 -23 15 -96 -9 -150 -22
-51 -20 -65 9 -65 28 0 54 40 90 140 29 81 35 91 54 87 12 -3 30 -2 41 2 24
10 51 3 66 -16z m-1171 -679 c0 -36 -35 -114 -50 -111 -18 3 -16 22 10 82 19
45 40 60 40 29z m-1154 -72 c-29 -65 -26 -110 12 -143 18 -16 36 -29 40 -29 4
0 17 21 29 48 51 111 117 172 185 172 89 0 106 -124 26 -196 -32 -30 -87 -57
-121 -59 -31 -3 -44 -11 -33 -22 4 -4 16 -2 26 5 27 16 35 15 20 -3 -16 -20 0
-19 28 1 13 9 26 14 29 10 3 -3 -11 -13 -31 -22 -22 -11 -36 -25 -36 -36 0
-17 4 -16 50 7 35 18 50 31 50 46 0 11 -4 17 -10 14 -5 -3 -10 -4 -10 -1 0 3
19 15 43 26 28 14 34 15 20 4 -21 -15 -23 -25 -22 -93 l0 -76 47 94 c49 99 82
134 126 134 57 0 83 -66 56 -139 -18 -47 -5 -35 34 31 31 53 43 65 64 66 l27
1 -25 8 -25 8 28 1 c16 1 38 6 50 12 31 17 79 13 94 -7 19 -26 16 -86 -7 -146
-13 -34 -16 -56 -10 -62 18 -18 32 9 51 96 10 46 16 65 14 43 -3 -22 -7 -58
-10 -80 l-5 -40 27 55 c14 30 26 67 26 82 0 15 5 28 11 28 6 0 4 5 -4 10 -13
8 -13 10 2 10 12 0 21 13 28 41 16 60 31 89 47 89 19 0 16 -19 -12 -94 -29
-77 -30 -83 -10 -66 8 6 19 10 26 8 6 -2 -8 -26 -30 -53 -46 -55 -81 -149 -62
-168 14 -14 10 -20 75 111 31 61 58 112 61 112 2 0 -18 -47 -45 -105 -27 -58
-46 -105 -42 -105 4 0 23 25 41 55 36 58 51 69 51 33 0 -34 -58 -115 -92 -130
-23 -10 -38 -28 -58 -72 l-27 -59 31 -43 31 -43 93 0 93 -1 -5 43 c-3 23 -13
110 -21 192 -9 83 -18 169 -21 193 -9 62 9 52 42 -23 16 -36 32 -61 35 -57 4
4 25 59 47 122 53 152 52 150 68 150 18 0 18 -17 0 -68 l-15 -41 34 6 c28 4
38 1 58 -21 13 -14 30 -26 37 -26 8 0 10 -8 6 -22 -3 -13 -6 -39 -6 -58 -1
-31 -2 -33 -14 -17 -18 24 -23 22 -31 -12 -6 -27 16 -91 31 -91 3 0 18 29 34
64 21 46 28 74 25 102 -3 31 -3 33 3 10 l7 -29 28 41 c36 52 78 68 120 47 17
-8 37 -15 46 -16 12 0 11 -3 -4 -9 -18 -8 -18 -9 6 -9 18 -1 29 6 37 24 25 54
42 20 20 -41 -10 -28 -8 -37 19 -84 l31 -53 38 102 c22 55 45 101 52 101 19 0
15 -23 -23 -131 -37 -107 -42 -134 -24 -144 19 -12 51 28 91 115 36 79 38 88
28 121 -16 47 -6 79 24 79 31 0 50 -24 43 -56 -3 -18 0 -27 12 -31 48 -15 71
-27 71 -36 0 -12 31 -36 48 -37 6 0 12 7 12 15 0 8 -3 15 -8 15 -4 0 -13 10
-21 23 l-14 22 24 -20 c13 -11 27 -24 32 -30 4 -6 11 -5 16 5 7 9 6 19 -2 29
-10 12 -9 14 5 9 9 -4 23 1 33 12 40 45 125 46 125 2 0 -15 6 -18 33 -15 l32
3 -30 -10 c-16 -6 -40 -26 -52 -44 -21 -34 -21 -35 -2 -52 15 -13 22 -14 33
-5 17 14 31 -1 23 -23 -3 -8 17 -35 46 -62 91 -85 78 -88 140 23 31 54 63 115
73 136 11 22 25 37 35 37 17 0 17 -2 -1 -45 -11 -25 -15 -45 -10 -45 5 0 34
12 64 27 47 23 53 29 45 45 -6 11 -6 18 0 18 5 0 12 -6 15 -12 5 -10 7 -10 12
0 3 6 15 12 26 12 17 0 19 -4 13 -27 -12 -50 -84 -207 -135 -293 -27 -47 -50
-89 -50 -94 0 -5 -33 -50 -74 -100 -294 -361 -679 -583 -1128 -651 -129 -20
-395 -19 -518 0 -448 73 -807 275 -1100 621 -98 115 -257 402 -285 517 -6 23
-4 27 14 27 13 0 21 -6 21 -17 1 -17 1 -17 14 0 17 22 25 22 19 -2 -4 -16 6
-25 46 -45 28 -14 55 -26 60 -26 6 0 2 20 -9 45 -18 43 -18 45 -1 45 12 0 30
-25 59 -82 22 -46 56 -107 75 -136 l33 -53 120 107 c65 59 120 110 122 114 1
3 -31 15 -70 28 -60 18 -65 21 -29 17 42 -5 43 -5 35 17 -17 49 -10 131 15
171 32 52 52 35 27 -21z m-533 -149 c-7 -2 -19 -2 -25 0 -7 3 -2 5 12 5 14 0
19 -2 13 -5z m154 1 c-3 -3 -12 -4 -19 -1 -8 3 -5 6 6 6 11 1 17 -2 13 -5z
m246 -1 c-7 -2 -21 -2 -30 0 -10 3 -4 5 12 5 17 0 24 -2 18 -5z m1104 1 c-3
-3 -12 -4 -19 -1 -8 3 -5 6 6 6 11 1 17 -2 13 -5z m141 -1 c-10 -2 -26 -2 -35
0 -10 3 -2 5 17 5 19 0 27 -2 18 -5z m219 1 c-3 -3 -12 -4 -19 -1 -8 3 -5 6 6
6 11 1 17 -2 13 -5z m626 -1 c-7 -2 -19 -2 -25 0 -7 3 -2 5 12 5 14 0 19 -2
13 -5z m400 0 c-7 -2 -21 -2 -30 0 -10 3 -4 5 12 5 17 0 24 -2 18 -5z m234 1
c-3 -3 -12 -4 -19 -1 -8 3 -5 6 6 6 11 1 17 -2 13 -5z m156 -1 c-7 -2 -19 -2
-25 0 -7 3 -2 5 12 5 14 0 19 -2 13 -5z m-1633 -20 c0 -5 -5 -15 -10 -23 -9
-13 -11 -13 -20 0 -15 22 -12 30 10 30 11 0 20 -3 20 -7z"/>
<path d="M1110 2575 c-7 -8 -8 -15 -2 -15 5 0 15 7 22 15 7 8 8 15 2 15 -5 0
-15 -7 -22 -15z"/>
<path d="M826 2207 c-10 -7 -17 -22 -15 -33 6 -27 59 -31 89 -6 l24 19 -32 17
c-38 19 -43 20 -66 3z"/>
<path d="M1714 2242 c-40 -61 -50 -92 -31 -92 13 0 44 58 62 118 9 32 4 27
-31 -26z"/>
<path d="M2767 2433 c-4 -3 -7 -13 -7 -22 1 -13 3 -13 11 2 11 19 8 33 -4 20z"/>
<path d="M2333 2368 c-27 -30 -48 -72 -63 -127 -23 -87 15 -122 65 -57 32 43
77 152 73 180 -4 31 -48 33 -75 4z"/>
<path d="M1203 2368 c-27 -30 -48 -73 -63 -127 -23 -87 15 -122 65 -57 36 48
78 154 71 183 -8 30 -45 31 -73 1z"/>
<path d="M2960 2370 c-37 -37 -72 -124 -68 -172 3 -50 22 -59 58 -30 15 12 25
34 29 63 5 34 10 43 23 41 18 -3 33 45 26 89 -4 32 -40 37 -68 9z"/>
<path d="M1172 1636 c-40 -36 -86 -112 -76 -127 3 -5 1 -9 -4 -9 -5 0 -9 -7
-9 -16 0 -12 7 -14 26 -9 14 4 35 9 46 11 66 13 123 63 131 116 12 71 -51 90
-114 34z"/>
<path d="M1390 1458 c-53 -73 -76 -198 -36 -198 32 0 65 40 68 83 2 33 7 42
20 41 13 -1 21 10 28 38 24 86 -27 109 -80 36z"/>
<path d="M1688 1493 c7 -3 16 -2 19 1 4 3 -2 6 -13 5 -11 0 -14 -3 -6 -6z"/>
<path d="M2184 1485 c-33 -22 -42 -58 -59 -230 -8 -88 -18 -177 -21 -197 l-6
-38 94 0 93 1 31 42 31 43 -29 65 -29 64 -39 -3 c-36 -4 -41 -1 -50 24 -9 23
-6 43 14 109 22 71 24 82 11 102 -13 19 -13 22 3 26 14 4 13 5 -3 6 -11 0 -30
-6 -41 -14z m35 -80 c0 -5 -8 6 -19 25 -11 19 -19 40 -19 45 0 6 8 -6 19 -25
11 -19 19 -39 19 -45z"/>
<path d="M2458 1493 c6 -2 18 -2 25 0 6 3 1 5 -13 5 -14 0 -19 -2 -12 -5z"/>
<path d="M3140 1486 c0 -8 4 -17 9 -20 15 -10 40 5 34 20 -7 18 -43 18 -43 0z"/>
<path d="M1650 1405 c-73 -83 -74 -86 -66 -120 14 -54 83 -8 88 58 2 33 7 42
20 41 12 -1 21 10 28 35 23 82 12 80 -70 -14z"/>
<path d="M3110 1465 c-10 -12 -10 -15 3 -15 19 0 31 16 18 24 -5 3 -14 -1 -21
-9z"/>
<path d="M2397 1435 c-19 -40 -18 -41 26 -19 42 22 42 21 24 39 -23 22 -31 19
-50 -20z"/>
<path d="M2830 1379 c-20 -48 -49 -98 -70 -120 l-37 -39 29 -51 c16 -28 28
-55 26 -61 -2 -6 -36 24 -74 65 -48 51 -74 73 -81 66 -18 -18 -86 -6 -98 17
l-11 22 -27 -24 c-16 -14 -41 -24 -58 -24 -31 0 -31 0 -24 -42 4 -24 12 -48
18 -54 7 -7 82 -35 167 -63 120 -39 169 -51 218 -51 l62 0 0 220 c0 121 -1
220 -3 220 -2 0 -18 -37 -37 -81z"/>
<path d="M2892 1427 c4 -30 28 -34 28 -4 0 15 -6 24 -15 24 -10 0 -15 -8 -13
-20z"/>
<path d="M3140 1440 c0 -5 7 -7 15 -4 8 4 15 8 15 10 0 2 -7 4 -15 4 -8 0 -15
-4 -15 -10z"/>
<path d="M491 1400 c7 -18 18 -30 29 -30 28 0 45 -27 30 -45 -11 -13 -10 -21
0 -43 l13 -27 14 34 c8 18 16 46 20 61 5 26 1 31 -46 54 -65 34 -72 33 -60 -4z"/>
<path d="M2965 1420 c3 -5 11 -10 16 -10 6 0 7 5 4 10 -3 6 -11 10 -16 10 -6
0 -7 -4 -4 -10z"/>
<path d="M3587 1404 c-46 -23 -48 -26 -42 -57 4 -17 13 -45 20 -62 l12 -30 13
28 c10 20 11 30 2 39 -15 15 3 48 27 48 12 0 23 11 30 30 12 37 5 37 -62 4z"/>
<path d="M2428 1381 c-61 -27 -58 -21 -43 -96 11 -50 94 -14 130 55 13 25 12
29 -8 47 -22 20 -22 20 -79 -6z"/>
<path d="M2956 1403 c-11 -11 -6 -22 14 -33 17 -9 20 -8 20 9 0 19 -23 35 -34
24z"/>
<path d="M1198 1364 c-27 -13 -48 -31 -48 -39 0 -19 1 -19 55 7 29 14 45 29
45 40 0 10 -1 18 -2 18 -2 -1 -24 -12 -50 -26z"/>
<path d="M2890 1371 c0 -25 6 -27 13 -6 4 8 2 17 -3 20 -6 4 -10 -3 -10 -14z"/>
<path d="M611 1338 c-5 -14 -13 -42 -16 -61 l-7 -35 55 -16 c30 -9 58 -16 61
-16 6 0 -61 128 -75 144 -5 5 -13 -2 -18 -16z m39 -68 c0 -5 -5 -10 -11 -10
-5 0 -7 5 -4 10 3 6 8 10 11 10 2 0 4 -4 4 -10z"/>
<path d="M2937 1346 c-4 -11 29 -36 48 -36 14 0 2 31 -14 40 -25 13 -28 13
-34 -4z"/>
<path d="M3502 1339 c-6 -13 -24 -48 -41 -77 -17 -28 -27 -52 -23 -52 5 0 32
7 60 15 57 17 61 26 41 86 -17 48 -27 56 -37 28z m8 -69 c0 -5 -4 -10 -10 -10
-5 0 -10 5 -10 10 0 6 5 10 10 10 6 0 10 -4 10 -10z"/>
<path d="M1193 1307 c-24 -11 -43 -27 -43 -34 0 -17 2 -17 55 9 25 12 45 28
45 35 0 17 -7 16 -57 -10z"/>
<path d="M2237 1324 c-13 -14 -8 -64 7 -64 8 0 18 4 21 10 8 12 -19 63 -28 54z"/>
<path d="M2550 1303 c0 -23 6 -33 21 -38 36 -12 41 9 9 40 l-30 29 0 -31z"/>
<path d="M2362 1300 c0 -14 2 -19 5 -12 2 6 2 18 0 25 -3 6 -5 1 -5 -13z"/>
<path d="M2920 1300 c0 -9 31 -30 44 -30 13 0 5 28 -10 34 -23 9 -34 7 -34 -4z"/>
<path d="M1455 1193 c-49 -53 -91 -90 -93 -84 -2 6 0 17 5 24 6 7 27 43 48 82
l39 70 -34 -28 c-41 -35 -98 -35 -115 0 -21 42 -35 -8 -35 -127 l0 -110 62 0
c49 0 98 12 218 51 85 28 160 56 166 63 9 9 34 101 34 126 0 4 -12 10 -27 13
-20 4 -36 -2 -56 -19 -47 -40 -108 -30 -118 18 -3 12 -29 -10 -94 -79z"/>
<path d="M1207 1261 c-44 -21 -68 -41 -49 -41 19 0 66 26 81 44 16 19 16 19
-32 -3z"/>
<path d="M1773 1268 c-5 -7 -15 -49 -22 -93 -7 -44 -14 -93 -17 -110 -3 -19
14 6 45 65 40 78 46 96 34 103 -8 5 -18 18 -22 29 -6 16 -9 17 -18 6z"/>
<path d="M2310 1265 c-8 -10 3 -41 44 -122 30 -59 55 -103 55 -98 1 6 -6 47
-14 93 -12 70 -19 88 -44 111 -24 23 -33 26 -41 16z"/>
<path d="M1103 1243 c-20 -8 -15 -23 7 -23 11 0 20 7 20 15 0 15 -6 17 -27 8z"/>
<path d="M3010 1203 c0 -27 3 -78 7 -115 l6 -68 102 0 102 0 32 37 c28 33 30
37 13 48 -36 24 -250 145 -256 145 -3 0 -6 -21 -6 -47z"/>
<path d="M2962 1231 c-11 -6 -10 -10 4 -15 20 -8 32 0 18 14 -5 5 -15 5 -22 1z"/>
<path d="M590 1214 c0 -9 53 -84 59 -84 3 0 20 11 36 24 33 27 34 26 -47 50
-27 8 -48 12 -48 10z"/>
<path d="M1205 1199 c-22 -10 -44 -20 -50 -22 -5 -3 -7 -7 -4 -11 8 -9 99 31
99 44 0 5 -1 10 -2 9 -2 0 -21 -9 -43 -20z"/>
<path d="M2890 1210 c0 -6 21 -20 46 -30 53 -23 54 -23 54 -10 0 10 -71 50
-90 50 -5 0 -10 -5 -10 -10z"/>
<path d="M3493 1201 c-29 -9 -55 -19 -58 -23 -5 -5 46 -48 58 -48 6 0 59 81
55 84 -2 2 -26 -5 -55 -13z"/>
<path d="M948 1152 l-97 -56 30 -38 31 -38 103 0 103 0 7 76 c4 41 5 77 3 78
-1 1 -21 9 -44 18 l-40 15 -96 -55z"/>
<path d="M1193 1147 c-56 -27 -60 -54 -5 -32 43 18 56 29 51 43 -2 5 -23 0
-46 -11z"/>
<path d="M2900 1154 c0 -18 83 -58 89 -43 5 15 -7 24 -51 43 -34 13 -38 13
-38 0z"/>
<path d="M1193 1088 c-24 -10 -43 -24 -43 -29 0 -7 7 -8 18 -4 9 4 27 10 40
13 21 4 41 28 31 36 -2 2 -23 -5 -46 -16z"/>
<path d="M2902 1094 c2 -9 21 -22 43 -30 67 -23 61 1 -8 30 -35 14 -38 14 -35
0z"/>
<path d="M1697 1093 c-12 -21 -18 -73 -8 -73 6 0 13 12 17 28 3 15 7 33 10 40
4 13 -12 17 -19 5z"/>
<path d="M2430 1085 c0 -32 12 -65 22 -65 6 0 7 14 3 33 -8 38 -25 60 -25 32z"/>
<path d="M1640 1056 c-12 -33 -12 -36 -1 -36 10 0 25 50 17 58 -3 2 -10 -7
-16 -22z"/>
<path d="M2484 1067 c3 -10 6 -25 6 -33 0 -8 5 -14 11 -14 12 0 2 40 -14 55
-7 7 -8 4 -3 -8z"/>
<path d="M1770 1049 c-13 -24 -4 -41 10 -19 10 16 13 40 5 40 -2 0 -9 -9 -15
-21z"/>
<path d="M2350 1058 c0 -17 18 -44 24 -37 8 7 -5 49 -15 49 -5 0 -9 -6 -9 -12z"/>
<path d="M755 1039 l-30 -19 33 0 c25 0 32 4 32 20 0 11 -1 20 -2 19 -2 0 -16
-9 -33 -20z"/>
<path d="M1590 1038 c0 -19 2 -20 10 -8 13 19 13 30 0 30 -5 0 -10 -10 -10
-22z"/>
<path d="M2537 1040 c3 -11 7 -20 9 -20 2 0 4 9 4 20 0 11 -4 20 -9 20 -5 0
-7 -9 -4 -20z"/>
<path d="M3350 1040 c0 -16 6 -20 33 -20 33 0 31 4 -15 31 -15 8 -18 6 -18
-11z"/>
<path d="M820 1035 c0 -8 4 -15 10 -15 5 0 7 7 4 15 -4 8 -8 15 -10 15 -2 0
-4 -7 -4 -15z"/>
<path d="M1205 1035 l-30 -13 27 -1 c15 -1 30 4 33 10 11 17 2 18 -30 4z"/>
<path d="M2900 1039 c0 -13 24 -22 47 -17 13 3 9 7 -14 15 -20 7 -33 8 -33 2z"/>
<path d="M3306 1035 c-3 -8 -1 -15 4 -15 6 0 10 7 10 15 0 8 -2 15 -4 15 -2 0
-6 -7 -10 -15z"/>
<path d="M1540 1030 c0 -5 5 -10 10 -10 6 0 10 5 10 10 0 6 -4 10 -10 10 -5 0
-10 -4 -10 -10z"/>
<path d="M2585 1030 c3 -5 8 -10 11 -10 2 0 4 5 4 10 0 6 -5 10 -11 10 -5 0
-7 -4 -4 -10z"/>
</g>
</svg>
